<svg xmlns="http://www.w3.org/2000/svg" width="128" height="128" xmlns:v="https://vecta.io/nano"><defs><clipPath id="A"><path d="M37.353 28.534v129.21h125.691v-54.872l-1.103.02-1.211.002-1.579.004-.289.001c.748.354.544 1.334-.648 1.359l-.65.014-.96.025-1.118.039-1.292.037-1.034-.001-1.064-.001-1.193-.002-1.11-.003-1.19-.004-1.117-.007-1.241-.01c-.456-.003-.912-.01-1.367.007l-.736.021h-.529v.001a1.66 1.66 0 0 1-.508-.074l-1.341-.034-1.824-.052-2.148-.013-2.429-.013-2.376-.021-1.993-.031c-.635-.01-1.27-.014-1.905.001l-1.982.031-1.952.027c-.344-.001-.69-.011-1.032.016-1.114.088-1.516-.701-1.005-1.163-.217-.068-.414-.15-.602-.238-.624-.071-1.148-.326-1.527-.711-.787.057-1.452-.125-1.956-.463-2.478-.033-3.681-3.04-.655-5.928l.188-.179.538-.512.803-.735.029-.026c.094-.661.373-1.393.883-2.159a5.78 5.78 0 0 1 .087-1.172c-1.716-1.03-1.706-3.766 1.519-5.609l1.315-.718.114-.055.487-.521.937-.895.468-.454c.195-.068.137-.279.228-.404l.617-.8c-.086-.126-.056-.2.016-.255-.019-.181.001-.337.117-.517l.152-.216c.013-.017.088.059.049-.04.041-.066.068-.14.111-.204.189-.278.242-.31.472-.54.201-.202.413-.284.598-.285.1-.001.192.022.271.063l.085-.071.352-.315 1.785-1.577c-.011.034-.008.068.019.102l.103.131.387-.552c-.057-.004-.105-.01-.138-.02l.044-.047c-.012.016-.029.031-.046.047-.157-.049-.034-.181.518-.473.039-.045.078-.085.118-.119h-.001c-.512-.495-.829-.825-.775-.837.045-.01.343.196.994.702l.057-.019.023-.029c.193-.237.506-.274.835-.291-.009-.157.032-.338.126-.531l-.068.038c-.795.437-1.3-.172-.87-.679-.1-.061-.084-.097.013-.361l.035-.095c.007-.021.033-.023.059-.025.015-.015.031-.026.09-.074l.024-.014c-.136-.049-.194-.179-.138-.306l-.059.054-.185.187c-.008.008-.014.018-.024.023l-.112.057c-.011.022-.024.043-.037.051l.028-.047a.38.38 0 0 1-.054.019l-.034.051c.02-.005.04-.011.057-.022-.019.027-.041.053-.067.075a.14.14 0 0 1-.039.02l-.017.024-.13.03c-.477.111.311-.572.067-.563.016-.007.032-.015.047-.026.043-.03-.12-.015-.156.023-.01.011-.019.024-.026.037l.036-.012c.043-.014.075-.021.098-.022-.044.019-.093.031-.14.045-.009-.007-.025-.002-.04.004.008.007.024.001.04-.004-.038.075-.044.172-.098.238-.02.025-.013-.042-.009-.089-.014.026-.032.049-.056.066-.046.032.007-.125.051-.16a.23.23 0 0 1 .043-.028c.071-.172.068-.157.193-.179l.169-.171a2.82 2.82 0 0 1 .162-.15c.025-.083.064-.157.141-.204.036-.032.086-.068.114-.106.016-.022.025-.047.038-.071l.076-.089c.007-.009.011-.014.019-.023.057-.118.082-.255.199-.335.019-.013.015 0 .024-.014.041-.068.059-.133.125-.186.056-.011.089-.274.194-.338l.013-.071c.005-.02.028-.031.041-.046l.026-.021a.28.28 0 0 1 .062-.143 1.41 1.41 0 0 1 .098-.118c.006-.007.015-.02.022-.014s-.005.04.002.032c.013-.017.014-.04.021-.06.1-.243.242-.452.477-.583.297-.231.531-.528.8-.79l.179-.149c.044-.034.111-.03.139-.088.105-.089.193-.198.287-.298.123-.134.241-.263.384-.377.073-.058.169-.085.229-.161l.126-.112.163-.155.116-.131a2.72 2.72 0 0 1 .761-.53c.034-.018.07-.03.1-.053.036-.027.064-.064.096-.095l.05-.047.03-.038c.003.006.016-.005.028-.016.053-.07.135-.182.126-.14-.005.022-.016.043-.029.064l.022.033c.047-.052.112-.111.202-.181.011-.009.024-.013.036-.014.071-.006.143.106.185.199.017-.012.028-.021.041-.02.006 0-.002.022.003.018.014-.01.021-.028.031-.042.055-.059.114-.132.183-.134.059.005.1.021.14.043.01.003.019.006.026.01.015.015.04.033.065.053-.01-.015-.031-.031-.056-.049.033-.001.07.014.098.046l-.03.002c.16.118.157.151.157.292v.012l.03-.012.102-.147 1.175-1.529c.294-.323.597-.461.852-.468.603-.017.937.705.243 1.471l-.42.51c.106-.065.206-.137.292-.228.102-.121.099-.123.276-.239.016-.054.089-.108.243-.165l.104-.038c.327.542.679.681.585.861 0-.108-.26-.217-.507-.328.039.142.096.315.194.516.004.001-.006.013-.024.039-.048.043-.087.095-.13.143l-.232.208a1.75 1.75 0 0 1-.212.144 5.44 5.44 0 0 1 .464.424l.034-.039c1.197-1.27 2.426-1.815 3.457-1.84 2.406-.059 3.729 2.706 1.075 5.675l.154-.005c.568-.008 1.067.107 1.481.313l.329-.567.23-1.035.29-1.004.388-1.224.381-.851c.027-.06.068-.126.087-.189s-.014-.15.04-.177c.155-.079.34-.069.51-.103.026.067.068.13.079.202.032.217-.034.56-.076.755-.217.997-.537 1.963-.926 2.906l-.207.389 1.477-1.223.658-.52c.07-.053.132-.117.206-.163.011-.007-.131.135-.01.013 1.234-1.234 2.476-1.729 3.501-1.706 1.498.033 2.528 1.171 2.408 2.717.733 1.125.549 2.994-1.303 4.86l-1.158 1.216-1.934 2.196-2.04 2.547-.291.36.811-.516 1.077-.683c1.145-.766 2.21-1.096 3.106-1.108 2.626-.035 3.81 2.659 1.373 5.089 2.963.142 4.109 2.272 3.118 3.962 2.48.603 3.148 2.816 1.752 4.341 1.044.751 1.397 1.86 1.051 2.85l.626-.018.153-.006V28.534zm94.273 45.846c.009-.018.016-.036.019-.05s.002-.024-.008-.015a.57.57 0 0 0-.063.074c.018-.002.034-.007.045-.021l.021-.03-.023.045zm.02-.053c.015-.02.029-.045.044-.069.005-.066.006-.077 0-.058s-.019.069-.044.127zm-.044 2.254l.027.027c.022-.037.046-.077.071-.101a.83.83 0 0 0-.098.073zm5.68-8.628c-.003.054.003.101.011.148a.8.8 0 0 1 .035-.128c-.013-.004-.035-.02-.046-.02zm.452.066a.51.51 0 0 0-.091.049l.14-.01-.048-.039zm-.245.239l.007.033c.001-.006-.003-.019-.007-.033zm.524.009a.48.48 0 0 1-.18.13l.076.009.036-.005.046-.055c.018-.022.02-.051.023-.08zm3.567.105c-.003.034-.033.069-.099.103.048-.037.081-.071.099-.103zm-.107.109l-.033.024a1.67 1.67 0 0 1-.16.095c-.008.004.015-.06-.002-.048l.05-.015c.06-.019.108-.038.145-.056zm-5.253 1.009c.003-.002-.117.022-.004.002zm-1.606 1.28l-.039.039.033-.012.007-.027zm-.546.628l.021.036zm-.478.383zm-.146.211c-.019.023-.026.041-.035.058h.021l-.025.011c-.035.061-.092.106-.144.153.029.002.039.027.021.075.047-.045.105-.115.176-.221v-.001c-.008-.017-.017-.018-.028-.019l.021-.012-.008-.047zm-.225.079zm.001.001c-.005.019 0 .038-.002.057l.015-.028c-.005-.027-.009-.045-.013-.029zm.02.063c-.007.009-.01.015-.013.022.015-.014.014-.017.013-.022zm.007.043l-.029.007c.009.009.019.003.03-.004zm-.605.08c-.021.026-.014.048-.012.11l.012-.11zm.546.394c-.004-.001-.026.007-.033.008-.03.027-.049.048-.062.065.032-.02.067-.035.095-.06zm.306.032zm-1.376.398l-.006.008zm-.006.008l-.006.008zm-.01.012l-.016.019c-.001.007-.004.021-.002.016.007-.011.012-.023.018-.035zm-.571.762c-.022 0-.05.003-.064.008a.31.31 0 0 0-.069.039 1.34 1.34 0 0 0 .156-.04c.013-.004-.001-.006-.022-.006zm1.21 2.279l-.631.169c-.066.019-.121.061-.176.104a.63.63 0 0 1 .138-.008l.203-.098c.148-.07.309-.096.473-.117l-.007-.05zm.05.201l-.33.188c.211.118.428.313.648.558l.251-.384a.58.58 0 0 1-.568-.361zm-.971.103c-.032.012-.064.028-.095.046.011-.004.023-.005.035.004l.035.024-.059.052.058-.03c.008-.018.005-.02.002-.022l.034-.028c-.009.011-.016.023-.024.035.029-.005.058-.018.08-.029l-.031-.025-.023.017.017-.022-.025-.02zm.329.255l-.043.024.417.267zm.932.43l-.327.004.233.14.094-.144zm-.372.006l-.503.021.536.503.147-.235.065-.099zm-1.759.054l-.35.32c.037-.106.228-.213.35-.32zm.519.004l-.145.004-.147.112c-.016.045-.027.09-.035.133l.198.149-.099.366c-.093-.163-.131-.334-.099-.516l-.058-.044.019-.028a2.62 2.62 0 0 0-.374.383l.41.589.102-.384c.153.267.456.515.851.766l.231-.391-.983-.743.129-.398zm-4.759 3.921c-.049.002-.082.027-.093.086.044-.03.101-.054.161-.078-.025-.007-.048-.01-.068-.009z" fill="red" fill-opacity="1" fill-rule="nonzero" stroke="none" stroke-width=".265"/></clipPath><clipPath id="B"><path d="M47.221 52.372v105.371h105.43V52.372zm24.321 1.887c.681-.011 1.097.352.782 1.35-.005.017-.001.043-.017.052-.023.013-.059-.013-.081.004-.016.012-.001.04-.003.06-.004.035-.018.07-.016.105s.026.067.029.102c.004.046-.005.092-.007.138.183.522-.105-.332.066.309.015.057.056.106.071.163.017.064.006.134.026.197s.066.124.093.19c.031.075.052.154.079.232l.128.213c.041.082.064.172.106.253s.103.152.15.231l.14.251c.427.666-.086-.229.321.503.63.868-.275-.393.344.517l.188.248c.06.089.104.188.164.277l.367.517 1.157 1.454 1.06 1.271.912 1.109.8.945.669.838.589.701.479.552c.143.143.269.3.405.45l.333.342.051.051c1.24 1.254.936 2.557.114 3.135l-.067.139c-.155.122-.289.277-.465.367-.625.321-1.152.284-1.764.021-.309-.141-.605-.329-.837-.579l-.683-.68-.115-.109c-.037-.041-.066-.089-.103-.13l-.463-.521-.738-.838-.79-.865-.815-.847-.813-.815-.799-.805-.757-.808-.701-.737-.624-.648-.545-.583-.418-.468c-.097-.103-.184-.206-.261-.309h-.001c-1.138.003-1.014-.946-.431-1.935a1.43 1.43 0 0 1 .38-.567c.294-.391.637-.761.977-1.051-.076-.069-.157-.106-.223-.163-.047-.041-.078-.099-.126-.14-.441-.381.06.122-.274-.224l-.17-.101c.057.032.113.056-.062-.071-.036-.026-.08-.038-.117-.063-.092-.062-.16-.172-.275-.196-2.622-.535.842-3.004 2.581-3.032zm69.818 7.632h.001.001.001.001.001c1.067-.058 2.926 2.775.983 2.616l-.104-.008c-.077-.047-.143-.123-.232-.141-.075-.015-.147.046-.223.048-.155.004-.312-.056-.466-.03-.113.02-.7.355-.777.398l-.337.306-.688.756-1.19 1.256-.234.235c.056.001.114-.004.159-.013l.398-.096.394-.084c.13-.038.253-.099.381-.141l.047-.013c.023-.048.059-.116.119-.213.033-.053.104-.076.132-.131.033-.065.021-.146.044-.216.05-.147.054-.104.053-.063l.018-.143c.056-.43.166-.6.302-.592.174.01.393.31.597.73.068-.038.148-.054.212-.097.514-.347-.009-.102.387-.272l.196-.148c-.013.013-.022.03.093-.025.046-.022.085-.056.131-.077.083-.038.181-.03.271-.049.009-.002.016-.011.024-.016.245-.158.447-.223.613-.217 1.347.046.205 4.805-1.141 2.854-.006-.008-.024-.018-.016-.024.034-.021.079-.015.113-.036.008-.005-.012-.016-.015-.025-.007-.026-.002-.058-.019-.08s-.047-.024-.071-.036l-.071-.125-.165-.057h-.001c.205.909.138 1.578-.599.824-.03-.031-.054-.069-.09-.094-.026-.017-.062-.014-.089-.028-.078-.041-.144-.102-.225-.135-.061-.025-.134-.009-.195-.036-.675-.299-.043-.163-.698-.259-.152-.054-.297-.133-.456-.163-.147-.028-.3-.014-.45-.007-.179.008-.281.023-.392.039l-.015.067-.421.816.456.202c-.11.447-.163.911-.328 1.34.617.114.181.2-.565.204.047.097.064.325-.038.307-.243-.044-.471-.138-.696-.245l.127-.075-.324-.022.196.097-.097.056-.336.159c-.115.064-.221.142-.332.212l-.273.183c.01.132-.024.26-.124.387.465.767.526.768-.094.571l.14.373-.279-.19c.005.007.01.026-.129-.017-.033-.01-.064-.031-.096-.047l.104.296c-.014-.037-.033-.076-.049-.094-.031-.033-.081-.036-.124-.05a.81.81 0 0 0-.279-.041l-.046.029c-.034.027-.063.059-.093.091l-.026.049c-.01.012-.023.022-.035.032l-.035.069.074.204c.009.026-.042-.037-.052-.062-.015-.036-.033-.075-.036-.114l-.055.102c-.029.049-.076.192-.1.14l-.188-.418-.156.151a1.28 1.28 0 0 0-.09.124c.022.144-.063.225-.178.265l-.218.274c-.043.055-.081.115-.119.174.09.14.154.552.283 1.268.016-.002.032-.01.049-.011.783-.017 1.778 1.819 1.581 2.689.88.871-.688.538-1.964.172-.112.024-.228.026-.342.039l.245.761a1.32 1.32 0 0 1 .253-.101c.113-.031.235-.021.348-.05.049.021.097.048.148.065.028.009.069-.012.088.011.043.052.007.148-.062.153-.539.038-.551.054-.767-.057h-.001c.157.479.097.34-.183.082l-.189.123c.018-.027.024-.057.012-.083l-.13-.288-.124-.083-.025.145c.078.098.136.231.175.37.017-.012.005-.003.031-.022l.059-.04c-.02.03-.053.057-.086.075.141.515.036 1.078-.151.101l-.098.094c-.039.036-.085.065-.122.104s-.067.091-.105.133c-.084.094-.36.307-.393.334-.547.049-.734.106-.885-.115l-.049.005-.059.004c-.034.765-.58.381-.683.076-.097.02-.192.044-.286.076a3.17 3.17 0 0 1-.254.309c-.069.077-.161.123-.26.161l.004.026c.005.032-.048.016-.09.004l.085-.03-.028-.182c-.068.024-.137.048-.203.057a.28.28 0 0 1-.141.069l-.036.025c.053.01.109-.007.161.005.046.01.087.039.134.049a.39.39 0 0 1 .027.007l-.215.081c-.05.023-.119-.018-.163.019-.271.03-.405.049-.468.007l.052.004c.136-.083.312-.082.452-.158.007-.004.014-.009.021-.013-.014-.003-.029-.007-.042-.015-.083.005-.166-.006-.249.002-.074.006-.15.024-.227.044l-.018.127-.056.396c-.012.086-.396-.051-.399-.052-.034-.009-.069-.014-.104-.021-.014-.024-.036-.035-.057-.051l.005.042.034.005c.001.023-.014.047-.029.068l-.006-.073c-.04-.007-.079-.009-.117-.008a1.07 1.07 0 0 1-.01.136l.065-.005c.029-.004.05-.025.068-.05h.001l.002.137c-.017.691-.246.783-.623 1.024l-.358.081c-.031.101-.077.178-.143.222l-.094.25a.17.17 0 0 1-.058.076l.086.097c-.187.275-.311.604-.56.825-.029.026-.081.037-.141.041-.042.045-.088.087-.136.124l.021.107c.041.221-.272.368-.454.501-.022.016-.048.023-.074.031h0c-.038.065-.088.122-.155.144.002.077-.001.155-.015.236-.036.209-.382.868-.778.926-.058.008-.117.004-.176.001-.112.121-.264.234-.415.298-.005.026-.014.051-.015.077-.004.131.033.259.05.389.005.042-.023.146.014.127.449-.231.304-.487.396-.314.638 1.193-.65 1.271-1.774.916-.002.049-.01.097-.021.145.102.205.174.417.181.644.007.22-.326.494-.633.592.281.631.604 1.307-.021 1.672-.123.072-.273.08-.41.119-.501.057.085.007-.5-.007-.08-.002-.159.017-.239.02-.089.003-.179-.006-.268-.001-.077.006-.471.076-.543.088l-.14.036c-.066.033-.136.06-.2.085.016.28-.062.494-.315.566-.004.047-.039.072-.108.088-.078.082-.335.05-.471.091-.041.013.196-.133.127-.055l.344-.036c.017-.018.025-.04.022-.07l-.037.006c-.104.01-.214-.012-.318-.003l-.295.055-.044.045c.009.063.013.152 0 .073l-.011-.063-.024.025c-.457.155-.627.228-.731-.064-.086.067-.135.037-.159-.059l-.209.09c-.009-.244-.833-2.517-.035-2.363-.006-.034-.012-.068-.007-.102.024-.352.128-.739.448-.93.11-.066.242-.087.363-.129.257-.088.177-.061.466-.11l.334-.093c.088-.255.257-.492.491-.578.072-.026.151-.032.226-.05l.177-.049c-.039-.177-.085-.353-.087-.533-.004-.345.26-.576.49-.784.061-.055.133-.1.212-.122.095-.027.196-.024.295-.032a2.42 2.42 0 0 1 .138-.229l-.149-.153-.021-.188c-.127-.074-.237-.166-.32-.291-.554-.83.15-1.246.634-1.436.136-.053.284.091.412-.016l.143-.025h.001c-.037-.026-.063-.068-.082-.144.068.036.14.068.214.097l-.117.044c.031.035.093.039.18.041a.91.91 0 0 0 .136-.008l-.199-.077c.094-.041.196-.097.258-.15.03-.026.051-.061.076-.092.005.016.01 0 .016-.019-.006.006-.011.011-.016.017-.002-.01.002-.02.009-.03.014.007.02 0 .027-.005.004-.025.022-.017.026-.025.018-.038.023-.08.034-.12.055-.173.058-.35.099-.527.07-.309.198-.583.423-.812.128-.081.486-.322.638-.375.134-.047.281-.046.417-.087l.087-.028a1.07 1.07 0 0 1 .073-.226l-.14-.178c-.033-.034.066-.042.125-.06-.024-.172-.037-.344-.021-.516.031-.331.48-.357.682-.403.066-.015.131-.036.198-.044l.05-.129c-.001-.06.029-.12.077-.18l.099-.203c.032-.06.115-.114.221-.155.029-.144.064-.282.101-.282l.551.24h.001l.096.033.266.003c.032-.243.12-.885.4-.621.044-.112.108-.215.184-.307a1.02 1.02 0 0 1 .077-.381.49.49 0 0 1 .028-.054c.002-.24.122-.413.446-.446.017-.002.035.001.052.004a.52.52 0 0 1 .068-.071 2.78 2.78 0 0 0-.326.014l-.679.099c-.15.024-.297.08-.449.078-.158-.003-.309-.064-.464-.096-.168-.283-.42-.53-.503-.849-.105-.403.398-.559.616-.662.103-.049.204-.104.315-.129.138-.031.285-.003.422-.037s.254-.109.381-.163l.399-.178c.138-.073.267-.162.402-.243l.329-.196c-.65-.245-.916-.563-.214-1.523.103-.141.348-.044.522-.064l.197-.022c.035.044.069.089.12.109.067.025.143-.015.214-.016.083-.001.167.022.25.012.065-.008.128-.029.191-.05l-.137-.067-.128.044c-.354-.032-.356-.046-.507-.032l-.046-.052c-.127-.122-.136-.18-.07-.193.109-.022.426.083.751.233l.535-.132c-.084-.346.1-.763.702-.924l.18-.048c.085-.263.497-.475.658-.566.065-.022.134-.035.196-.065.049-.024.089-.063.133-.094l.194-.147c-.034.056-.059.113-.073.14l.11.027c.013-.015.026-.03.036-.047.049-.079.065-.176.098-.264-.012.001-.023.004-.035.008.025-.03.048-.063.069-.097l-.177-.226c-.044-.059.154-.068.22-.035.046.023.009.102.014.152a.8.8 0 0 1-.057.108c.04-.051.084-.103.117-.162.038-.067.068-.139.102-.208-.521-.574-.855-.79-.251-1.427.067-.283.313-.312.562-.269l.325-.013c.203-.017.205-.027.394-.08.151-.052.29-.125.429-.202a.83.83 0 0 1-.05-.118c-.303-.885-.126-.956.27-1.357.404-.165.308-.102.629-.312l.254-.174c.223-.182.398-.422.572-.648.087-.156.213-.286.3-.441.039-.07.063-.147.099-.219l.104-.194c.194-.362.459-.512.715-.522l.03-.001c.641.004 1.198.88.366 1.491l-.181.133-.05.031c.031-.005.062-.007.091.001.323.066.685.118.93.339.353.319.349.585.239.851a1.04 1.04 0 0 1 .363.38l.22-.221 1.188-1.255.677-.764c.094-.12.173-.25.259-.375l.304-.83c.02-.171-.035-.344-.025-.516.005-.084.057-.159.067-.242.018-.157-.014-.317.016-.473l.002.001c.092-.485.31-.689.579-.706zm-15.294 16.57c.016.036.024.079.054.104.037.031.09.034.136.047.008-.054.004-.108-.002-.167l-.119.014-.07.002zm.205.155l.006.063.093-.044-.098-.019zm-7.897 12.465h.001c.008-.028.005-.038.002-.047-.006.026-.007.022-.003.047zm14.04-12.1c.036-.037.063-.057.098-.081-.054.011-.091.004-.115-.013l.018.094zm-.018-.094l-.036-.214c-.012.072-.023.172.036.214zm-.036-.214l.01-.061.015-.116a.52.52 0 0 0-.061-.066l.036.242zm1.91-5.823l.014-.028-.008-.021c-.007.026-.007.037-.007.049zm7.016-4.929c.03.01.252.076-.016-.069l.016.069zm-79.424-4.43l.04.025c.653.407.785.824.61 1.217l.087.151c.038.055.088.102.127.157.292.409-.058-.021.265.361a10.69 10.69 0 0 0 .968 1.145l1.082 1.127 1.065 1.1 1.023 1.062.973.983.883.885.791.818.712.739.691.71.641.639.593.563c2.267 2.11-.278 4.526-2.27 2.154l-.547-.65-.288-.341c-.582.749-1.888.85-2.948-.548l-.458-.604-.53-.69-.581-.722-.637-.757-.656-.787-.689-.77-.684-.737c-.211-.24-.442-.461-.679-.675l-.602-.572c-.161-.17-.341-.321-.53-.458-.136-.115-.289-.206-.423-.322-.1-.108-.212-.191-.278-.326-1.346-2.738.108-.31 1.998-.753l-.467-.372c-.347-.294.021.003-.347-.252-.053-.037-.098-.085-.152-.12s-.113-.055-.167-.087c-.236-.137-.039-.061-.297-.14-.27-.198.057.031-.224-.132l-.132-.082c-1.226.411-2.097.446-.622-.217.053-.024.062.082.107.082.016 0 .023-.026.038-.03.044-.011.168.029.21.047a.77.77 0 0 1 .266.118c1.055-.354 2.372-.986 2.687-1.698l-.016-.028c-.171-.269-.049-.015-.179-.32-.248-.297.066.091-.161-.232-.083-.118-.206-.22-.222-.372-.072-.146-.006.01-.038-.155-.009-.046-.055-.082-.04-.135zm72.933 2.728c-.17.003-.349.058-.501.114-.075.028.344.109.188.151l.182-.011c.065-.002.13.008.194 0 .074-.01.145-.035.217-.055l.137-.04c-.116-.121-.262-.162-.417-.16zm.904.208l-.264.383-.043-.105a1.49 1.49 0 0 0-.167.335c-.018.051-.044.103-.056.155l.184-.011c-.028-.136.013-.255.082-.374l.137.377.091.007a.64.64 0 0 0 .04-.074c.032-.073.031-.156.053-.233.019-.066.071-.126.069-.195-.002-.061-.055-.11-.082-.165l-.044-.1zm3.262 1.121l-.239.037-.401.061-.154.037a1.24 1.24 0 0 1-.053.291l.331-.119c.138-.057.281-.111.4-.201.042-.032.08-.068.116-.106zm-5.533.679c-.022-.001-.028.086-.047.267.044.073.071.162.132.221-.054-.136-.058-.251-.022-.392-.03-.062-.05-.095-.062-.096zm-.475.103c-.036.059-.078.114-.102.173.295.075.175.017.369.122l-.267-.295zM77.767 69.99c.042.257.11.45.289.644.025-.013.049.002.051-.01.005-.054-.171-.324-.197-.387l-.142-.248zm54.673.37l-.121.033-.021.093c.036-.039.083-.081.142-.126zm-.798.131a1.11 1.11 0 0 1-.131.131c.034-.056.078-.109.131-.131zm.279.147l.081.09c-.019-.033-.049-.062-.081-.09zm3.744.085l-.105.04-.125.224.067-.072.178-.19zm-2.035 2.086l-.14.07c.002-.003.025-.019.048-.033l-.052.03c-.008.015-.017.028-.028.021a.92.92 0 0 0-.101.056c-.047.017-.092.043-.142.051l-.191.026c-.018.059-.029.115.012.15.072.06.301.089.467.033l.022-.028c.056-.076.104-.158.156-.237-.006-.04-.026-.089-.051-.139zm-3.609.618l-.085.038c.072.105.165.2.237.276.039.041.091.081.148.086.019.002.038-.001.056 0l.152-.127-.051-.138c-.02.001-.04.005-.059.001-.137-.031-.258-.121-.397-.136zm-.225.021l-.176.033-.316.037-.059.291c-.012.056-.059.115-.068.169.05-.056.092-.119.149-.167.068-.056.152-.092.228-.137l.223-.135c.009-.031.015-.061.019-.091zm-.019.091c-.046.167-.145.337-.24.492l.114-.003c.089.001.15.085.221.15l.318-.208c-.186-.143-.259-.305-.305-.482l-.109.051zm-.24.492c-.125.008-.224.033-.301.072.069.073.173.138.212.073l.089-.146zm-.301.072a.36.36 0 0 1-.051-.067c-.01-.018-.016-.038-.008-.057l-.021.023c-.052.051-.125.082-.165.143-.049.076-.06.17-.09.255-.036.05-.048.17-.107.151l-.957-.302-.371.219-.4.242c-.116.087-.213.197-.319.296-.398.415-.24.137-.342.682-.017.09-.115.191-.065.267.098.146.489.138.467-.041-.015-.123-.063-.237-.117-.35-.114-.036-.25-.086-.228-.241.005-.035.06-.038.09-.056.04.101.091.198.138.297l.061.019c.29.096.561.078.861.056l.316-.039a1.96 1.96 0 0 1 .072-.35c.075-.228.452-.463.668-.544.597-.223.148-.012.348-.109-.024-.221.032-.399.219-.494zm1.306-.541c.004.031.011.064.02.097l.068-.089c-.028-.006-.057-.01-.088-.007zm1.611.411c-.011.14-.065.039-.028.096l.091.007c.014-.05-.004-.087-.063-.102zm-.188.052l-.012.032c.013 0 .022.002.035.003l-.023-.034zm-1.757.007c-.008-.001-.016.083-.006.113.016.071.051.135.078.203l.027.002-.095-.311zm2.253 2.056c-.041.013-.081.026-.119.043l.04.138c.043-.044.089-.087.087-.144 0-.013-.003-.025-.008-.037zm.556 2.49c-.01.012.001.017.007.02l-.007-.02zm-3.208.674c-.042.048-.061.097-.075.149l.129.036c.017-.058.025-.117.02-.176l-.074-.009zm-.227.104c-.034.012-.073.022-.111.032-.001.01-.003.021-.005.031-.01.042-.076.133-.034.126.075-.014.173-.019.273-.026l.028-.117-.152-.045zm.124.162a.8.8 0 0 1-.026.094c-.025.036-.045.078-.068.117l.083-.025.04-.013c.043-.062.08-.126.106-.191l-.135.019zm.995.021l-.363.029.247.068c.054.015.086-.037.116-.097zm-8.742 2.965h.001c-.002.013-.011.024-.019.036-.007-.016.021-.049.019-.036zm.295.014c-.038.059-.066.125-.083.196.024-.006.042-.016.068-.021l.071-.014c-.003-.006-.007-.012-.01-.019-.022-.051-.032-.096-.046-.142zm-2.071 4.016a.98.98 0 0 0-.116.077c.017.016.039.03.067.039l.037-.045c.024-.025.082.054.113.039.079-.008.161-.049.233-.077-.109-.021-.222-.031-.334-.033zm.098.119c-.042.009-.083.012-.124.004-.008-.002-.015-.004-.022-.007-.062.081-.092.167-.097.256l.135-.067.031-.043c.031-.045.053-.095.076-.144zm-.236-.117c-.01.001-.013.009-.011.021l.014-.021zm.886 1.428l-.094.058c.011.016.016.031.018.045l.069.032.065.019-.058-.154zm-.151.254c-.015.025-.026.05-.019.076.017.067.161.103.166.094l.082-.143c-.073-.03-.143-.016-.208-.024l-.021-.003zm-2.17.088c-.049 0-.1.078-.156.196.029-.003.061-.003.094.002s.064.006.099.007l.079-.04c-.039-.115-.077-.165-.116-.165zm.038.205a.37.37 0 0 1-.07.028l-.13.05c-.015.007-.028.016-.042.024l-.037.09c.027-.022.05-.049.079-.068s.075-.067.079-.038l.096.533c.056.029.112.061.174.075a.45.45 0 0 0 .08.01l-.135-.697-.093-.007zm-.242.102l.049-.111a.39.39 0 0 0-.081.016c.022.009-.052.021-.034.037-.046.006-.022-.018.034-.037-.033-.014-.07-.02-.106-.021.006.005.02.016.019.021-.005.045-.14.087-.168.098.007-.028.031-.056.055-.084.011-.013.023-.02.035-.025-.099.01-.177.043-.225.105l-.04-.201c0 .01.009.063.033.213.011.002.011.006.014.021.037-.01.073-.025.111-.028l-.105.142a1.03 1.03 0 0 0 .295-.083c.039-.018.075-.041.112-.064zm-.414.033c-.01-.001-.012-.018-.013-.021l-.019.028c.008-.001.014-.003.022-.005l.013.086c.004-.052.003-.051-.004-.088zm3.221-.235a.36.36 0 0 1-.094.005l-.042.04c.001.015.001.03 0 .045l-.047.002-.057.061c-.088.125-.076.058-.058.174.002.015-.007.053.005.045.111-.077.154-.176.159-.283.144-.005.213-.012.135-.09zm-.183.093l.047-.048-.003-.038c-.129.031-.26.06-.38.116.135-.021.244-.028.336-.031zm-.556.169c-.089.06-.18.118-.208.121l-.042.003.02.085c.075-.05.153-.066.198-.121.02-.024.027-.055.032-.088zm-2.808.002zm0 .001zm1.397.224l-.024.018.063.164c-.002-.061-.021-.122-.039-.182zm-.106.089c-.01.015-.012.03-.001.045.01-.008.005-.026.001-.045zm1.252.737l-.04.054.031.098c.015.06.127.045.184.021.028-.012-.01-.063-.03-.085-.03-.033-.074-.05-.111-.074l-.034-.012zm-.841.704l-.317.15.063.162c.016-.007.031-.014.045-.024.087-.055.151-.138.226-.208l-.016-.081zm-.33.113zm.006.053c-.03.049-.127.044-.148.099a.43.43 0 0 0 .055.093.82.82 0 0 0 .111-.025l-.018-.167zm-.484.299c-.006.006-.011.009-.021.02l.025-.016zm-39.363 27.797h0 .059c1.381.025 2.102 1.888.541 3.941-.004.005-.007.02-.012.016s.001-.023-.006-.03-.155.068-.163.071l-.353.221c-.138.134-.316.216-.482.309-.301.168.038.02-.312.159-.089.08-.205.115-.304.179-.051.033-.094.079-.146.112-.058.037-.125.059-.182.096-.122.078-.231.175-.347.263l-1.045.909-1.017.954-.982.899-.764.726c-.086.084-.172.151-.257.219.082.334-.038.765-.488 1.169l-.054.048-.175.158-.19.176-.211.194-.236.218-.268.244-.286.268-.283.278-.245.264c.048.226-.012.512-.258.814l-.287.349-.474.573-.532.657-.3.372c.041-.022.226-.161.22-.054-.083 1.313-.129 1.031-.263.258a1.42 1.42 0 0 1-.131.234c-.038.056-.1.083-.15.127-.063.028-.108.083-.162.124-.087.065-.076.052-.068.043a1.05 1.05 0 0 1 .06.38c.22.658.168 1.272-.568.933-.034-.016-.06-.031-.099-.031-.011 0-.024.012-.034.008s-.011-.023-.017-.035c-.032.013-.066.001-.099.007-.083.019-.176.084-.251.124-.033.02-.063.045-.094.067.096.128.262.235.533.307.027-.022.056-.043.086-.047.105-.064-.002.068-.037.059l-.05-.013-.037.03c-.058.002-.118.046-.163.082a1.26 1.26 0 0 0-.189.163l-.207.203-.233.234c-.091.099-.202.175-.298.269l-.345.309-.419.35-.449.421-.033.033-.187.213-.281.322-.287.332-.3.349-.305.358-.32.367-.336.396-.344.397-.351.414-.345.429c-.1.126-.197.261-.262.408-.082.133.009-.024-.056.119l-.109.222c-.051.085-.095.173-.171.241v.001c-.316.283-.475.297-.547.164.066.753-.416.647-.906.268l-.129.132-.353.358c-.081.071-.148.158-.226.232s-.043.034-.12.106l-.348.348-.333.34-.297.327-.261.297-.231.263-.205.237-.03.035c-1.111 1.246-2.454-.133-1.177-1.209l.035-.029.224-.186.262-.231.298-.263.333-.3.351-.333.284-.275a.7.7 0 0 1-.331-.546c-.067-.294.033-.667.408-1.024l.106-.099.318-.3.156-.151c-.285-.613-.156-1.495.746-2.336l.298-.281.633-.61.67-.666.639-.717c.189-.241.423-.442.63-.669l.631-.671.63-.676.638-.698.592-.71c.147-.218.326-.414.478-.628l.35-.513.256-.425c.039-.171-.019.064.04-.111.022-.066.028-.147.058-.21.008-.016.025-.026.038-.039.348-.356.647-.506.906-.507v.001c.466-.002.796.476 1.038 1.102l.046-.064.346-.459.314-.428.281-.39.284-.357c.096-.119.204-.228.308-.341l.301-.316.263-.288.23-.263.213-.24.19-.215.13-.145c-.625-.489-.708-1.581.459-2.484l.819-.656.997-.851 1.026-.889.982-.961.292-.329c.045-.058.076-.126.122-.184.04-.051.093-.093.134-.143.078-.095.137-.205.224-.294l.066-.145c.019-.035.053-.061.068-.098.012-.028-.001-.063.01-.091s.04-.049.053-.078c.039-.088.02-.077.01-.068.007-.008.024-.029.059-.074l.235-.413c.008-.082.063-.192.115-.254h-.001c.725-.875 1.465-1.248 2.081-1.26z" fill="red" fill-opacity="1" fill-rule="nonzero" stroke="none" stroke-width=".265"/></clipPath><clipPath id="C"><path d="M64.866 63.969l3.174 71.228.429-.36 1.057-.933 1.07-1.014c.171-.16.348-.326.493-.511.047-.061.079-.133.129-.192.092-.11.222-.182.303-.302l.447-.469c.047-.057.084-.122.132-.179.042-.05.091-.093.137-.14l.125-.157c.205-.224.04-.03.212-.272.03-.042.068-.077.094-.121s.031-.093.056-.134c.008-.012.017-.024.027-.034-.713-.23-1.155-.97-.941-1.835-.892-1.013-1.276-2.64.405-3.367.048-.021.081.029.123.03.08.001.265-.089.351-.115.364-.219-.181.101.199-.095.037-.019.067-.049.104-.069.044-.023.093-.034.137-.057.382-.207-.145.032.276-.15l.141-.099c.052-.031.111-.051.162-.084s.1-.082.154-.118.118-.065.173-.104c.547-.392-.237.117.352-.257l.177-.156.201-.144c.066-.055.123-.12.187-.177l.204-.168.388-.387c.396-.414.753-.862 1.115-1.305l1.002-1.353.895-1.276.786-1.144.713-1.011.692-.916.625-.83.487-.636c.532-.702 1.127-1.012 1.648-1.044 1.136-.07 1.92 1.184.941 2.587l.083.777c.372.437.569 1.015.46 1.59.024-.016.051-.039.069-.047s.05 0 .073-.009c.169-.066-.024-.038.132-.051.12-.052 0-.018.101.003.012.002.024-.015.035-.01.034.014.034.059.023.086-.356.834-.543.916-.656.61-.208.347-.552.672-1.066.94-.006.003-.02.016-.018.01.012-.04.041-.075.051-.116.004-.019-.018-.012-.049.003l-.214.275-.662.888-.658.917-.689.899-.738.887-.76.883-.756.884-.761.868-.759.846-.712.84-.618.768c-.47.587-.981.878-1.446.954l.552 2.467a.7.7 0 0 1 .19-.107c.107-.075.244-.088.346-.179.029-.019.158-.108.139-.03-.279 1.13-.482.974-.675.316l-.153.116c-.137.097-.123.079-.106.064l-.094.077c-.092.032-.142.122-.222.17-.051.03-.111.043-.163.071s-.091.064-.139.094c-.289.177-.037-.004-.305.2-.502.329.206-.144-.292.219-.052.038-.112.065-.164.103-.166.121-.317.269-.464.412-.123.078-.201.208-.314.297-.064.05-.14.081-.205.128-.198.142-.379.316-.556.482l-1.062 1.003-.992 1.009-.6.632c-.501.531-1.019.749-1.465.752l.082 1.829 75.913-3.674-3.279-73.579-.291.085c-.073.026-.14.066-.211.095-.333.134-.064-.005-.369.169-.052.022-.109.034-.156.064-.053.034-.09.089-.14.126-.081.061-.327.203-.426.188-.185-.028-.363-.092-.544-.138-.065-.071-.141-.134-.214-.2l-1.283.996-.314.266c.151.056.298.118.412.227.5.478.279.964.081 1.515-.052.145-.322.234-.436.325l-.191.116.083.26c.113.497-.058.969-.434 1.304l-.859.66-.14.129-.125.098c-.045.041-.083.09-.129.131-.037.034-.081.059-.119.092-.24.209-.044.069-.235.198l-.178.154c-.032.03-.058.067-.089.097-.051.05-.113.086-.166.133-.007.007-.01.017-.014.025h.001c-.627 1.003-1.276.341-1.605-.591l-.769.963c.183.128.286.324.361.565.113-.311.298-.444.518-.447h.001c1.1-.014 3.047 3.152.973 2.874-.195-.026.404.057-.272-.084-.052-.011-.107-.002-.161-.003-.069-.002-.139-.016-.208-.007-.063.009-.119.07-.182.06-.142-.022-.274-.082-.408-.133-.019.056-.088.082-.131.123l-.173-.116-.192.032-.031.027-.424.348.379.327c.53.483-.297.961-.584 1.063l-.206.028c-.017.084-.082.151-.213.191l-.253.072.069.025c-.016.007-.032.017-.048.025.399.342.604.712.119.991-.1.057-.24-.032-.343.035-.054.002-.112-.01-.164.007-.045.015-.077.053-.114.083l.031.027.034-.008c.046.03.102.049.138.091.018.021.035.103.014.084l-.186-.166a.55.55 0 0 1-.081.011c-.171.126-.334.264-.462.436l-.141.287.086.311c.109.059.065-.099.09.018h.001c.129.611-.077.881-.43.933l-.131.123-.224.155c.221.267.028.579-.576 1.027.189.596.174.491-.373.394.004-.047.004-.095-.001-.132l-.079.052.012.069.067.011c-.008.103-.03.196-.043.134l-.025-.146-.039-.007c-.023.002-.046 0-.069.001l-.064.038c-.013-.004-.022.008-.032.02h.001l.031-.019.041.218c.007.036-.079-.004-.106-.029-.038-.035-.055-.058-.058-.076l-.048.061-.115.095-.037-.149-.046.064-.163.307-.182.274c-.053.096-.086.202-.135.3-.045.091-.109.172-.148.265-.025.06-.038.124-.053.187a1.82 1.82 0 0 1 .06.334c.012.182-.139.339-.209.508l-.137.104-.001.129c-.004.057-.022.113-.022.17.001.108.031.215.028.323v-.001c-.02 1.043-.761.98-1.464.525l-.111.018c.023.686-.531 1.417-1.748 1.442l-.099.003c-.238.012-.476.044-.712-.007-.066-.02-.147-.014-.199-.06l-.284-.242c.063.039.133.073.216.107.052.021-.262-.128-.148-.079l-.168-.119.1.09a.87.87 0 0 1-.21-.181c-.263-.243-.372-.527-.418-1-.035-.363.201-.593.386-.864.053-.042.101-.091.159-.127.033-.02.067-.038.101-.056.041-.072.078-.146.132-.208.293-.335.57-.382.978-.444l.335-.098.02-.034c-.122-.038-.24-.09-.355-.177-.411-.31-.527-1.098-.077-1.432.124-.092.291-.105.436-.158.66-.305-.157.056.597-.219.02-.007.038-.017.057-.026-.388-.228-.631-.465-.492-.691-.546-.732-1.34-1.807-.772-1.501.072.039.13.106.208.13l-.174-.313c.094.1.136.166.294.204.063.015.13-.01.195-.013.079-.004.16.008.237-.007.104-.021.347-.146.438-.191l.204-.133c.231-.15.443-.215.626-.224l-.025-.135a.61.61 0 0 1-.247-.373c-.087-.362.089-.74.134-1.109.075-.057.139-.13.224-.17.102-.047.218-.05.325-.083.025-.008.05-.018.075-.029-.097-.202-.22-.401-.213-.62a.96.96 0 0 1 .523-.756c.097-.04.209-.037.306-.077.137-.057.237-.184.374-.241l-.088-.224c-.039-.104.224-.011.334-.028a1.69 1.69 0 0 0 .13-.027l-.049-.009c-.062.003-.136.045-.187.009-.067-.046-.125-.135-.116-.217.01-.089.105-.278.164-.212.106.117.203.241.295.369l-.059.048.08-.02-.02-.028.536-.47.042-.042c.124-.127.239-.261.342-.407.292-.349.108-.094.328-.5.041-.076.102-.141.131-.223.032-.091.024-.193.049-.286l.049-.164c-.005-.01-.009-.019-.013-.029-.154-.394-.141-.402.063-.135l.017-.118.758.75c.004-.005.011-.005.021.003s.137.085.297.184l-.055.024c-.009.005-.017.012-.025.017l.201.034-.12-.075c.034-.014.067-.027.097-.046.149-.093.269-.236.402-.349l.252-.287c.045-.059.08-.125.123-.185.036-.05.081-.094.117-.144.05-.07.086-.149.14-.215s.114-.11.171-.166c.225-.08.436-.245.674-.241.248.004.434.053.576.137l.798-.992-.098-.347c-.092-.035-.173-.087-.234-.165-.813-1.037-.55-1.221-.115-1.651.436-.218.03.001.334-.198.051-.034.111-.056.16-.093a1.07 1.07 0 0 0 .112-.098c-.114-.078-.283-.227.119-.22l.042.05-.16.17.069.046c.337-.098-.163.026.39.127l-.299-.343.046-.047-.031-.002-.057-.001c-.382-.453-.297-.479.221-.772.329-.079-.05.023.215-.078.009-.003.018-.004.027-.006h.001c-.012-.005-.018-.024-.029-.072-.022-.1.117-.238.234-.274l.195-.311c.028.012.063.025.085.049h.001c.006-.043.008-.109.041-.095l.331.13c.187-.165.416-.329.554-.279l.089.032c-.059-.29-.048-.495.106-.495.033 0 .073.009.12.029.321.137.048.095.207.114l-.011-.067c-.006-.041.037.023.075.078.04.012.078.028.119.03.048.003.096-.011.143-.019.282-.049.544-.19.836-.167.086.041.179.074.271.107l.288-.332.97-1.229-.072.01c-.047.007-.096.006-.141.019-.054.016-.104.046-.155.069-.319.087-1.213.382-1.215-.394l.001-.236-.716.13-.622.131c-1.556.317-1.635-1.792-.06-1.602l.621.078c.304.04.612.063.919.058.153-.399.447-.442.964-.362l.255-.016c-.069.033-.108.078-.033.114l.037-.028h.001l-.01.042c.023.027.039.063.07.079.042.022.093.017.139.026.21.043.422.071.638.054-.109-.171-.417-.25-.626-.327-.006-.002-.013-.004-.021-.005l.121-.062c.048-.026.093-.064.138-.099l-.369.018c.008.013.016.034.02.045.011.032.038.072.026.102.024-.004.045-.005.063-.004l-.067.038c-.042.027-.082.059-.121.091l.022-.089-.025.003.026-.012.041-.174zm56.967 20.687c-.066-.06-.129-.124-.184-.191a1.08 1.08 0 0 0 .075.1l.109.091zm6.017-4.654c-.01.007-.019.015-.028.023.021-.013.026-.018.029-.023zm-.04.035c-.029.019-.054.033-.05.059l.05-.059zm11.052-19.648l.37.138-.056.301.116-.039c.054-.014.109-.019.164-.027.341-.051.202-.058.46-.012.14.063.289.107.419.189.088.055.179.123.223.216l.114.247.158.004-.049-1.111zm.778.517c-.048.008-.091.114-.087.138.005.03.044.041.063.064.133.159.025.099.236.153.268.108.06.04.362.092.071.012.141.037.213.045a.97.97 0 0 0 .109.005l-.381-.384-.505-.113zm-2.049 1.31l-.07.328c.188.06.366.183.564.18.07-.001.094-.123.083-.192-.009-.054-.087-.065-.13-.098-.064-.05-.118-.117-.192-.154a5.76 5.76 0 0 0-.256-.064zm3.078.396c-.017.028-.037.055-.067.096-.014.029.047-.047.06-.077l.008-.019zm-1.781.165l-.177.136.23.101c.053-.01.13-.019.153-.082.009-.025-.039-.035-.058-.053-.027-.027-.046-.063-.079-.083-.001-.001-.043-.012-.069-.019zm-3.373 1.961c-.055.007-.143.03-.153.057.038.025.091.045.128.058l.022-.039c.004-.006.009-.012.015-.018l-.011-.058zm-1.521.155c-.014.065-.012.114-.022.162l.011-.047c.009-.026.037-.049.032-.076-.003-.016-.011-.029-.021-.039zm-.023.167l-.01.033c.003-.007.006-.013.008-.021zm-.01.033zm-.004.01a7.4 7.4 0 0 1-.085.115l.021.026.018-.049c.013-.032.032-.061.047-.092zm-.066.142l-.037.12-.009.014.098-.073-.05-.061zm-.05.136c-.082.054-.168.097-.263.106l-.059.016c-.04.111.001.164.133.218l.025-.035c.035-.058.055-.123.088-.182.024-.042.05-.082.077-.123zm-.323.122zm.459.102c-.059.061-.089.123-.118.187l.329.106-.012-.046c-.011-.048.005-.105-.021-.146s-.076-.056-.118-.076c-.017-.008-.042-.025-.06-.024zm2.632.451zm.001.003c-.004.003.018.061.026.083a2.37 2.37 0 0 0 .076.161.51.51 0 0 0-.038-.122l-.06-.12zm-2.754.392c.022.107.056.177.129.237l.173-.049c-.063-.086-.158-.146-.302-.188zm2.254-.069c-.035.05-.076.087-.123.117.047 0 .171-.019.155-.091-.003-.012-.015-.02-.032-.026zm-.227.175l-.079.044-.024.017c.036.041.127.091.121.052l-.018-.112zm.811.022a.85.85 0 0 0-.173.198c.012.004.026.006.037.014.066-.046.11-.126.136-.212zm-6.312 4.347c-.084.012-.25.116-.233.2l.042.214.094-.073.108-.124c.009-.039.003-.076.003-.112s.05-.093.017-.103c-.008-.002-.018-.002-.03-.001zm-1.051.729zm-2.593 1.445l-.046.011.026.005.02-.017zm4.119 1.902l-.028.013.028-.013zm.355.02c.03.03.084.047.089.089s-.022.131-.063.115l-.354-.128.036-.016c.093-.035.198-.028.292-.06zm-.528.263c-.013.006-.031.011-.06.01-.027.018-.055.033-.084.047l-.086.081.085.087c.056.056.145-.099.163-.177.004-.019-.003-.035-.018-.049zm-3.972.397c-.019.042-.019.074-.015.105l.015-.105zm-2.242 2.971zm2.339 1.189l-.115.034.017.059-.036.026-.159.087c-.037.024-.471.398-.611.266l-.014.015c-.182.162-.11.057-.169.149l.249.118c.055.004.11.01.164.021l.114-.131.246-.227c.075-.081.136-.173.205-.259l.026-.026-.013-.038.096-.058h.001l.001-.035zm.019.024l-.019.01c.006.004.012-.003.019-.01zm-2.054.204l-.081.089-.152.143c.062.039.113.103.116.153l.002.029c.16.067.34.101.507.115l.392.014c.021-.003.043-.002.064-.005l.031-.03.066-.1-.945-.407zm-.115.414h-.001a.94.94 0 0 1-.189-.105c-.004.005-.009.01-.013.015-.058.079-.083.178-.13.264l-.134.218c.083.048.155.125.25.144.275.053.226-.444.217-.535zm-.189-.105a.78.78 0 0 1 .07-.077.22.22 0 0 0-.076-.031c-.025-.005-.05-.003-.072.009-.033.017.044.06.066.09zm.472.531c-.13.065-.229.157-.337.234-.006.017-.014.033-.022.05.108-.038.246-.075.329-.158.047-.047.057-.123.03-.126zm-1.492.833zm-1.06.523c-.035.003-.087.033-.088.034l-.139.117c.081-.036.161-.074.235-.124.006-.007.026-.013.02-.02s-.016-.009-.028-.008zm.819.247c.001.014.004.024.008.035l-.002-.03zm-1.39.772c.026.199.014.144.054.254-.026-.09-.043-.174-.053-.254zm-.393.305c-.006-.009-.013.581.007.329l-.006-.318zm2.518.102l-.132.071c.043.057-.143.075-.113.121.022.033.076.026.116.029.03.002.058-.001.085-.008a1.02 1.02 0 0 0 .044-.213zm-.368.72l-.152.055c.053-.061-.157.083-.113.072.144-.035.153-.053.265-.127z" fill="red" fill-opacity="1" fill-rule="nonzero" stroke="none" stroke-width=".265"/></clipPath></defs><g clip-path="url(#A)" transform="matrix(1.010422 0 0 .985506 -36.8167 -28.124473)"><g fill="none" stroke="#d54512"><ellipse cx="99.937" cy="105.058" rx="48.634" ry="48.604" clip-path="url(#B)" stroke-width="8.163"/><ellipse cx="104.515" cy="100.104" rx="33.817" ry="33.825" transform="matrix(.998831 .048349 -.044511 .999009 0 0)" clip-path="url(#C)" stroke-width="8.368"/></g><g fill="red"><path transform="matrix(.708285 .705927 -.638508 .769615 0 0)" d="M143.094-86.674h1.765V48.838h-1.765z" stroke="#d54512" stroke-width="7.573"/><path transform="matrix(-.706052 .70816 .636118 .771591 0 0)" d="M-11.488 54.787h.744v57.175h-.744z" stroke="#d54512" stroke-width="7.575"/></g></g></svg>
